<?xml version="1.0" standalone="no"?>
<!DOCTYPE svg PUBLIC "-//W3C//DTD SVG 20010904//EN"
 "http://www.w3.org/TR/2001/REC-SVG-20010904/DTD/svg10.dtd">
<svg version="1.0" xmlns="http://www.w3.org/2000/svg"
 width="600.000000pt" height="328.000000pt" viewBox="0 0 600.000000 328.000000"
 preserveAspectRatio="xMidYMid meet">
<g transform="translate(0.000000,328.000000) scale(0.100000,-0.100000)"
fill="#000000" stroke="none">
<path d="M4085 2839 c-89 -29 -232 -50 -395 -58 -80 -4 -154 -12 -165 -18 -11
-6 -63 -18 -115 -28 -52 -9 -106 -19 -119 -22 -19 -5 -23 -3 -18 10 3 8 -2 22
-13 32 -25 23 -116 16 -244 -19 -96 -25 -112 -27 -435 -32 -185 -3 -345 -8
-356 -11 -11 -3 -109 -9 -218 -12 -165 -5 -197 -4 -197 8 0 11 -12 13 -60 8
-39 -4 -61 -3 -66 5 -7 11 -216 5 -261 -8 -34 -10 -18 -23 27 -21 21 0 36 5
34 9 -10 16 19 7 32 -9 13 -17 14 -17 8 0 -5 15 1 17 49 17 66 0 117 -9 117
-21 0 -5 -11 -9 -25 -9 -14 0 -42 -7 -62 -15 -25 -11 -39 -12 -48 -5 -10 8
-13 6 -11 -6 1 -12 -14 -21 -51 -32 -102 -28 -62 -35 165 -28 119 4 348 14
507 22 400 21 1776 31 1856 14 43 -9 62 -10 72 -2 9 8 128 12 373 12 l359 1
22 -32 c31 -45 29 -69 -9 -131 -24 -38 -33 -67 -36 -110 l-4 -59 -81 -73 c-52
-49 -78 -79 -74 -89 4 -11 41 -20 127 -33 l122 -18 -8 -25 c-4 -14 -8 -48 -9
-76 -1 -27 -3 -55 -4 -61 0 -6 -19 -23 -41 -38 -40 -26 -45 -46 -12 -46 39 -1
46 -15 28 -60 -9 -23 -16 -65 -15 -93 1 -29 -4 -65 -10 -80 -17 -44 -13 -118
8 -153 10 -17 35 -52 55 -78 58 -76 51 -97 -90 -247 -79 -85 -95 -107 -92
-129 l4 -26 -191 -16 c-143 -12 -226 -14 -335 -8 -243 14 -698 12 -870 -5
-292 -29 -356 -36 -650 -75 -455 -61 -625 -80 -885 -95 -132 -8 -271 -20 -310
-25 -38 -6 -131 -14 -205 -19 -78 -6 -136 -14 -138 -20 -7 -20 -48 -11 -88 19
-22 16 -73 41 -113 56 -88 33 -99 49 -76 110 19 51 14 64 -35 84 -37 15 -37
24 0 79 36 53 37 61 5 91 -33 31 -32 64 5 146 29 63 30 69 19 120 -11 49 -10
60 20 152 17 55 31 106 31 114 0 8 -14 27 -30 43 -16 16 -30 39 -30 51 0 27
39 60 91 76 65 19 44 28 -49 22 l-89 -7 -10 42 -11 41 52 37 c139 99 149 134
49 164 -46 13 -56 36 -28 59 21 18 19 33 -5 27 -16 -4 -20 0 -20 19 0 18 12
32 50 55 62 38 64 60 9 84 -32 15 -39 23 -35 39 5 22 23 138 29 191 3 25 8 30
35 33 20 2 32 -1 32 -9 0 -9 28 -10 123 -4 67 5 179 8 248 6 84 -2 129 1 133
8 7 11 -17 16 -57 13 -10 -1 -16 2 -13 7 12 19 -20 31 -55 21 -18 -6 -43 -10
-54 -9 -42 2 41 19 110 23 76 5 105 12 105 28 0 18 -240 -22 -390 -63 -51 -15
-75 -18 -78 -10 -2 6 -29 11 -67 11 -47 0 -64 4 -69 15 -7 20 21 31 143 55 95
19 110 25 98 36 -10 10 -202 -33 -260 -58 -29 -13 -97 -34 -152 -48 -55 -14
-98 -29 -95 -34 5 -9 111 -9 143 0 13 4 17 -1 17 -21 0 -18 13 -40 35 -62 20
-20 34 -37 33 -38 -2 -1 -24 -12 -50 -23 -28 -12 -48 -27 -48 -36 0 -16 22
-42 52 -61 9 -5 18 -24 21 -41 5 -25 -1 -41 -34 -84 -42 -56 -45 -73 -12 -78
18 -3 15 -9 -27 -51 -57 -57 -82 -102 -78 -139 2 -21 10 -28 40 -35 43 -10 46
-17 18 -42 -35 -32 -20 -75 27 -75 16 0 24 -7 29 -27 4 -16 16 -43 27 -61 l19
-33 -35 -77 c-72 -153 -81 -202 -48 -256 l19 -31 -34 -75 c-26 -59 -33 -88
-34 -138 0 -66 8 -92 43 -130 20 -22 20 -23 3 -60 -10 -20 -21 -65 -23 -98 -5
-59 -4 -63 28 -98 31 -33 43 -38 119 -51 47 -8 114 -21 150 -29 132 -28 240
-40 253 -27 9 9 9 14 -2 20 -17 11 33 18 219 31 80 6 215 17 300 25 85 8 182
14 215 14 50 -1 33 -5 -95 -25 -237 -36 -380 -65 -380 -76 0 -7 16 -8 43 -4
23 3 101 13 172 22 72 9 138 21 149 26 13 7 16 7 12 -1 -4 -6 -24 -16 -46 -22
-46 -14 -58 -35 -25 -43 92 -23 1060 -34 1433 -16 175 9 214 14 276 35 51 18
127 31 266 45 337 36 549 72 557 96 2 7 -13 15 -34 19 -58 12 -385 21 -503 14
-58 -3 -150 -9 -205 -12 l-100 -6 110 15 c648 86 641 85 805 83 88 -2 160 -4
160 -5 0 -2 -20 -12 -43 -22 -90 -40 -111 -99 -33 -90 53 7 158 49 164 67 4
11 -7 12 -54 8 l-59 -6 40 19 c22 11 58 20 81 20 47 0 59 7 43 26 -8 10 -16
11 -31 3 -16 -9 -19 -8 -13 2 6 9 2 10 -16 4 -39 -13 -206 -18 -194 -7 6 6 60
13 120 15 101 4 115 7 150 31 22 15 62 42 90 59 63 41 95 88 95 141 0 53 3 57
79 103 95 58 96 64 34 123 -45 43 -53 55 -53 87 -1 50 -16 74 -72 118 -27 20
-48 39 -48 43 0 4 29 54 65 111 68 112 71 134 20 147 -33 8 -32 32 6 99 35 62
33 83 -11 91 -17 4 -30 13 -30 21 0 8 -14 35 -32 60 l-31 47 31 26 c40 33 40
40 1 40 -29 0 -31 2 -25 28 3 15 13 62 21 105 8 42 25 95 37 116 19 33 20 41
9 55 -7 9 -22 16 -33 16 -15 0 -18 5 -13 20 3 11 3 21 -2 21 -4 1 -18 3 -30 4
-13 1 -42 20 -66 43 -68 62 -70 62 -213 52 -183 -13 -491 -13 -496 1 -4 13
-74 28 -138 29 -37 1 -25 5 65 25 123 25 165 40 165 55 0 13 -2 12 -75 -11z
m-494 -93 c-20 -24 3 -29 173 -35 116 -4 150 -8 124 -14 -21 -4 -38 -12 -38
-17 0 -6 -10 -10 -23 -10 -13 0 -27 -4 -32 -9 -6 -5 -176 -11 -380 -14 -203
-3 -360 -3 -347 0 12 2 22 9 22 15 0 7 -31 8 -98 4 -54 -4 -190 -9 -303 -11
-112 -2 -226 -8 -254 -14 -63 -12 -71 -6 -13 10 23 7 45 16 48 20 3 4 106 9
230 12 222 5 277 12 404 52 54 17 114 19 135 6 20 -13 6 -28 -37 -41 -44 -15
-64 -30 -38 -30 37 0 352 62 381 75 42 19 61 19 46 1z m407 -6 c16 -5 -50 -9
-165 -9 -111 -1 -194 3 -198 8 -3 6 16 12 42 14 66 6 288 -3 321 -13z m743
-47 c26 -21 48 -40 49 -43 0 -3 -105 -6 -233 -6 -212 -2 -227 -1 -172 11 33 7
105 27 160 43 55 17 111 31 123 31 13 1 46 -16 73 -36z m-545 4 c9 -8 -63 -20
-81 -13 -9 3 -13 2 -10 -4 3 -6 -1 -10 -10 -10 -9 0 -14 4 -11 8 3 5 -9 7 -27
5 -27 -3 -29 -2 -12 7 20 10 6 10 -110 -5 l-40 -5 45 14 c44 13 243 16 256 3z
m291 7 c-14 -14 -183 -44 -306 -53 -157 -13 -359 -13 -321 -1 14 4 88 8 165 9
77 1 156 6 175 12 19 6 85 17 145 24 141 16 150 16 142 9z m-3641 -27 c0 -20
-4 -22 -30 -18 l-31 5 30 7 c17 4 26 7 22 8 -5 0 -5 6 -2 11 9 15 11 13 11
-13z m507 -2 c1 -6 -14 -11 -33 -13 l-35 -2 25 15 c27 15 40 15 43 0z m1077
-4 c0 -4 -6 -8 -12 -8 -28 0 -123 -24 -128 -32 -4 -8 -221 -19 -650 -35 l-115
-4 55 18 c46 16 89 19 271 19 166 1 226 5 259 16 23 8 70 15 104 15 92 0 196
12 190 21 -3 5 2 6 10 3 9 -3 16 -9 16 -13z m-641 -7 c6 4 11 2 11 -5 0 -7 -9
-9 -22 -5 -13 3 -30 6 -38 7 -10 0 -8 3 5 8 11 5 23 4 26 -2 4 -5 12 -6 18 -3z
m-1024 -4 c-3 -5 -14 -10 -23 -10 -15 0 -15 2 -2 10 20 13 33 13 25 0z m955 6
c0 -3 -4 -8 -10 -11 -5 -3 -10 -1 -10 4 0 6 5 11 10 11 6 0 10 -2 10 -4z m292
-13 c-40 -2 -103 -2 -140 0 -37 2 -4 3 73 3 77 0 107 -2 67 -3z m-1172 -58 c0
-25 -4 -45 -8 -45 -15 0 -40 34 -47 63 -7 25 -5 27 24 27 30 0 31 -1 31 -45z
m2103 38 c-13 -2 -35 -2 -50 0 -16 2 -5 4 22 4 28 0 40 -2 28 -4z m1962 -63
c3 -5 3 -15 -1 -21 -6 -11 -23 6 -24 24 0 10 18 9 25 -3z m-4087 -120 l-10
-39 -29 15 c-37 19 -37 31 4 48 46 20 46 20 35 -24z m4027 -91 c-16 -76 -16
-84 -1 -95 14 -10 15 -13 1 -24 -22 -18 -19 -36 15 -85 38 -55 38 -66 2 -56
-15 5 -67 14 -115 21 -48 6 -87 15 -87 19 0 4 12 14 28 23 15 9 50 40 78 68
47 47 52 55 57 108 5 54 25 117 34 108 3 -2 -3 -42 -12 -87z m-3968 -3 c9 -8
2 -18 -28 -39 l-40 -27 18 27 c13 19 14 28 5 31 -6 2 -12 10 -12 19 0 16 36
10 57 -11z m-87 -121 c0 -18 -5 -25 -20 -25 -20 0 -20 1 -4 25 9 14 18 25 20
25 2 0 4 -11 4 -25z m65 -116 c25 -6 48 -16 51 -21 8 -13 -27 -49 -95 -96 -51
-36 -58 -39 -76 -26 -10 8 -29 14 -42 14 -45 0 -19 64 58 141 40 40 43 41 50
21 6 -15 23 -25 54 -33z m4094 -58 c12 -8 10 -16 -12 -50 -15 -22 -27 -45 -27
-51 0 -5 -4 -10 -10 -10 -14 0 -13 32 2 80 13 41 22 47 47 31z m-4207 -189
c-27 -7 -37 16 -16 39 l19 21 5 -28 c4 -20 1 -30 -8 -32z m4193 4 c14 -4 25
-11 25 -17 0 -6 -25 -52 -55 -102 -56 -92 -68 -92 -40 -1 20 66 19 71 -12 88
-19 10 -23 15 -11 16 9 0 25 11 35 24 13 18 20 21 25 11 4 -7 19 -16 33 -19z
m-4104 -64 l-26 -27 -12 25 c-15 33 -11 37 30 32 l34 -4 -26 -26z m23 -121
c17 -19 16 -24 -14 -116 -29 -85 -32 -103 -26 -165 6 -61 4 -77 -18 -127 -40
-94 -40 -107 -5 -148 l31 -35 -26 -34 c-14 -19 -26 -39 -26 -45 0 -22 -16 -10
-43 32 -25 37 -28 49 -25 107 3 48 13 83 37 134 l34 69 -24 43 c-21 40 -22 48
-11 88 14 52 84 216 93 216 3 0 14 -9 23 -19z m4049 -123 c42 -38 49 -50 56
-97 8 -48 14 -59 57 -96 l48 -42 -44 -27 c-25 -15 -58 -37 -73 -48 l-29 -20
12 22 c18 33 5 77 -39 134 -50 66 -61 88 -61 124 0 39 11 92 19 92 4 0 28 -19
54 -42z m-17 -452 c-8 -19 -32 -47 -53 -61 -138 -94 -148 -88 -42 25 39 41 78
86 87 100 l17 24 3 -26 c2 -14 -4 -42 -12 -62z m-4116 -144 c0 -5 16 -16 35
-25 l35 -17 -15 -36 c-32 -78 -17 -98 112 -148 99 -38 117 -64 22 -30 -24 8
-75 19 -113 24 -80 10 -113 35 -122 92 -7 38 22 148 37 148 5 0 9 -4 9 -8z
m3463 -54 c-2 -5 -19 -8 -37 -8 -48 0 -716 -89 -729 -97 -6 -4 -23 -8 -37 -9
-18 -2 -21 -1 -10 6 8 4 20 9 25 10 24 5 45 22 39 32 -8 13 -126 5 -309 -22
-71 -10 -155 -22 -185 -25 -30 -3 -68 -9 -85 -12 -71 -13 -6 11 136 51 139 39
286 69 394 80 72 7 803 1 798 -6z m-1124 -32 c-2 -2 -49 -16 -104 -31 -55 -14
-118 -35 -140 -45 -31 -14 -85 -20 -250 -29 -228 -12 -281 -13 -274 -7 2 3
135 23 294 46 160 22 326 47 370 54 90 15 110 18 104 12z m321 -50 c0 -13
-120 -35 -220 -39 -141 -6 -117 5 45 22 66 7 125 14 130 16 15 5 45 6 45 1z
m1125 -22 c-49 -15 -75 -17 -75 -4 0 17 29 26 72 21 l43 -4 -40 -13z m-2211
-24 c-11 -4 -68 -11 -125 -14 l-104 -5 95 13 c52 7 109 13 125 14 26 1 27 0 9
-8z m1880 4 c42 -4 75 -8 73 -10 -10 -10 -577 -87 -584 -80 -3 3 22 10 56 17
34 6 61 16 61 20 0 13 -4 12 -230 -26 -113 -19 -208 -35 -212 -35 -5 0 -8 -4
-8 -10 0 -13 96 -13 121 0 11 6 19 7 19 1 0 -15 -28 -21 -139 -33 -130 -13
-1186 -16 -1396 -4 l-150 8 48 22 c34 15 45 24 38 32 -20 19 273 53 514 59
121 3 310 10 420 15 110 5 324 10 475 11 151 1 307 5 345 9 93 9 452 12 549 4z
m-2139 -34 c-3 -5 -12 -10 -18 -10 -7 0 -6 4 3 10 19 12 23 12 15 0z"/>
<path d="M1628 2673 c7 -3 16 -2 19 1 4 3 -2 6 -13 5 -11 0 -14 -3 -6 -6z"/>
<path d="M1423 2627 c-25 -11 -31 -27 -10 -27 18 1 105 25 111 31 10 10 -79 7
-101 -4z"/>
<path d="M1100 2585 c0 -8 5 -15 10 -15 6 0 10 7 10 15 0 8 -4 15 -10 15 -5 0
-10 -7 -10 -15z"/>
<path d="M726 2295 c-9 -26 -7 -32 5 -12 6 10 9 21 6 23 -2 3 -7 -2 -11 -11z"/>
<path d="M931 1614 c0 -11 3 -14 6 -6 3 7 2 16 -1 19 -3 4 -6 -2 -5 -13z"/>
<path d="M4726 1098 c3 -5 10 -6 15 -3 13 9 11 12 -6 12 -8 0 -12 -4 -9 -9z"/>
<path d="M4749 963 c-1 -5 -1 -11 0 -15 0 -4 -6 -5 -14 -2 -9 4 -15 0 -15 -10
0 -18 13 -20 41 -6 23 13 26 40 4 40 -8 0 -16 -3 -16 -7z"/>
</g>
</svg>
