<?xml version="1.0" encoding="UTF-8"?>
<svg xmlns="http://www.w3.org/2000/svg"
     viewBox="0 0 600 328"
     preserveAspectRatio="none">
  <defs>
    <!-- Your traced scribble, preserved, but converted to stroke for button borders -->
    <symbol id="scribble" viewBox="0 0 600 328" preserveAspectRatio="none">
      <g transform="translate(0,328) scale(0.1,-0.1)"
         fill="none"
         stroke="currentColor"
         stroke-width="10"
         stroke-linecap="round"
         stroke-linejoin="round">
        <path vector-effect="non-scaling-stroke" d="M4085 2839 c-89 -29 -232 -50 -395 -58 -80 -4 -154 -12 -165 -18 -11
-6 -63 -18 -115 -28 -52 -9 -106 -19 -119 -22 -19 -5 -23 -3 -18 10 3 8 -2 22
-13 32 -25 23 -116 16 -244 -19 -96 -25 -112 -27 -219 -16 -64 6 -144 9 -179 6
-62 -6 -64 -7 -127 -73 -34 -37 -80 -97 -100 -133 -21 -35 -58 -93 -82 -128 -42
-58 -46 -62 -58 -45 -10 14 -22 17 -58 15 -25 -2 -53 -4 -62 -4 -9 -1 -25 -12
-37 -25 -11 -13 -28 -24 -37 -24 -10 0 -28 -11 -41 -25 -13 -14 -28 -25 -34 -25
-15 0 -190 -91 -219 -114 -21 -17 -33 -18 -80 -11 -61 9 -143 9 -260 0 -119 -10
-278 -69 -365 -136 -57 -44 -153 -100 -220 -128 -69 -30 -108 -35 -150 -21 -26 10
-41 9 -81 -5 -55 -19 -183 -99 -273 -171 -62 -50 -87 -55 -138 -29 -43 22 -130 23
-237 1 -66 -13 -85 -22 -114 -52 -31 -33 -38 -36 -63 -28 -47 16 -107 11 -168 -12
-33 -12 -83 -27 -112 -32 -28 -6 -76 -23 -105 -39 -47 -25 -55 -34 -70 -78 -9 -28
-19 -72 -23 -98 -6 -44 -9 -48 -33 -45 -33 4 -59 -17 -81 -66 -18 -40 -19 -170 -1
-219 8 -20 14 -50 14 -66 0 -39 40 -106 64 -106 12 0 16 -7 14 -27 -5 -48 9 -98
37 -131 14 -16 25 -34 25 -40 0 -19 126 -141 188 -182 55 -36 64 -39 120 -34 55 6
74 2 185 -37 67 -24 137 -48 155 -53 18 -4 65 -20 105 -35 46 -17 109 -30 172 -36
59 -5 116 -16 135 -26 31 -16 45 -16 163 -4 82 8 154 10 194 5 48 -7 71 -4 102 9
32 13 47 14 76 5 19 -7 35 -10 35 -7 0 3 17 -1 38 -8 20 -7 54 -12 75 -10 26 2 53
-6 80 -22 27 -17 59 -27 97 -29 32 -2 61 -6 65 -9 3 -4 21 -7 40 -8 19 -1 66 -12
105 -24 89 -28 172 -39 204 -26 13 5 73 17 133 25 59 8 140 24 178 36 100 30 155 36
265 28 52 -4 111 -3 130 2 19 5 79 11 133 13 64 2 115 9 150 21 49 17 59 17 112 4
32 -8 77 -15 100 -15 32 0 53 7 87 30 43 30 48 31 100 21 95 -17 143 -14 186 15 35
24 44 25 109 19 39 -4 77 -11 86 -15 28 -16 117 -24 141 -14 17 7 40 6 79 -4 53 -14
57 -14 85 6 30 23 75 29 93 11 25 -25 92 17 144 91 49 68 64 73 195 64 119 -9 234 -2
289 17 19 7 58 15 86 19 68 9 104 26 181 83 64 48 80 52 127 28 25 -13 38 -13 70 -4
22 7 54 12 72 12 40 0 88 35 106 76 7 16 28 47 47 70 39 48 52 75 66 139 10 45 28 66
64 74 40 9 55 41 62 133 6 78 9 86 34 101 14 10 26 26 26 37 0 11 7 45 16 75 26 92
-6 166 -111 256 -42 35 -94 64 -146 82 -101 35 -111 37 -234 37 -55 0 -113 5 -129 10
-15 6 -55 12 -87 13 -32 1 -69 7 -81 13 -39 19 -103 22 -143 7 -34 -13 -45 -13 -99 1
-63 16 -119 19 -160 7z"/>
      </g>
    </symbol>
  </defs>

  <!-- Makes it visible in GitHub preview -->
  <use href="#scribble" x="0" y="0" width="600" height="328" />
</svg>
